# xmcd
#
# Track frame offsets:
#	150
#	17929
#	35246
#	48783
#	66459
#	80697
#	102513
#	118270
#	136275
#	151994
#	168567
#	184857
#	198665
#	209985
#
# Disc length: 3024 seconds
#
# Revision: 0
# Processed by: cddbd v1.5.2PL0 Copyright (c) Steve Scherf et al.
# Submitted via: dBpowerAMP V4.0
#
DISCID=dd0bce0e
DTITLE=Varied Artists - The Ilocano Romantic Love Songs
DYEAR=1995
DGENRE=Blues
TTITLE0=Ronel Sulisipan_Lea Danzalan - Siksika Laeng
TTITLE1=Lea Danzalan - Agsubli Pay Ngata
TTITLE2=Grace Mamaoag - Ragsak Ko
TTITLE3=Bing Bing Mauricio - Maidasayak Ken Liday
TTITLE4=Bing Bing Mauricio - Nupay Nasakit
TTITLE5=Jovy Montenegro - Patpatgenka
TTITLE6=Marieta Blanco - Ipapanaw
TTITLE7=Marieta Blanco - Diak Kuman Nagayaten
TTITLE8=Grace Mamaoag - Sika Awan Sabali
TTITLE9=Ronel Sulisipan - Agsublikan Biagko
TTITLE10=Honey Tolentino - No Adda Man Sabali
TTITLE11=Honey Tolentino - Kastoy Kadi
TTITLE12=Alex Arellano - Dikanto Agsangit
TTITLE13=Marina Cubangbang - Isublim Ni Ayat
EXTD=
EXTT0=
EXTT1=
EXTT2=
EXTT3=
EXTT4=
EXTT5=
EXTT6=
EXTT7=
EXTT8=
EXTT9=
EXTT10=
EXTT11=
EXTT12=
EXTT13=
PLAYORDER=
